<svg version="1.1" viewBox="0 0 500 500" xmlns="http://www.w3.org/2000/svg">
 <path d="M71.69,140.07l1.6-3.7C86.81,105.16,116,83.44,149.65,81a86.79,86.79,0,0,1,13,0c31.19,2.31,60.71,21.6,75.68,49.44,8.8,16.38,13.33,36,27.41,48,18.33,15.65,45.36,12.5,68.95,8.5s50.65-7.08,68.91,8.65c11.43,9.85,16.77,25.35,18,40.48,3.35,40-19.45,79.39-52.24,101.9s-74,29.8-113.67,27.33c-55.5-3.45-111-26.28-148.19-68.21S53.85,193.31,71.69,140.07Z" style="fill:#f5f5f5"/>
 <path d="M16.76,468.36c0-.14,100.81-.26,225.14-.26s225.16.12,225.16.26-100.79.26-225.16.26S16.76,468.51,16.76,468.36Z" style="fill:#263238"/>
 <path d="M244.41,189.14c-.15,0-.19-5.5-.1-12.28s.28-12.27.42-12.27.19,5.5.1,12.28S244.55,189.14,244.41,189.14Z" style="fill:#263238"/>
 <path d="m209.74 196.11a69.83 69.83 0 0 1-5.1-6.82 69.88 69.88 0 0 1-4.66-7.12 69.28 69.28 0 0 1 5.09 6.82 67.82 67.82 0 0 1 4.67 7.12z" style="fill:#263238"/>
 <path d="m281.07 194.42a16.6 16.6 0 0 1-2.1 2c-1.34 1.18-3.24 2.77-5.38 4.46s-4.12 3.18-5.57 4.22a14.89 14.89 0 0 1-2.43 1.58 18.2 18.2 0 0 1 2.21-1.87l5.47-4.33 5.46-4.34a16.15 16.15 0 0 1 2.34-1.72z" style="fill:#263238"/>
 <path d="M224.93,172.25l.41.83a.28.28,0,0,0,.22.16l.92.14a.29.29,0,0,1,.17.5l-.67.65a.29.29,0,0,0-.08.26l.15.92a.29.29,0,0,1-.43.31l-.82-.43a.34.34,0,0,0-.28,0l-.82.43a.29.29,0,0,1-.43-.31l.16-.92a.32.32,0,0,0-.09-.26l-.66-.65a.29.29,0,0,1,.16-.5l.92-.14a.27.27,0,0,0,.22-.16l.41-.83A.3.3,0,0,1,224.93,172.25Z" style="fill:#07292C"/>
 <path d="M287.75,209.68l.41.83a.33.33,0,0,0,.23.17l.92.13a.3.3,0,0,1,.16.51l-.66.65a.3.3,0,0,0-.09.26l.16.91a.3.3,0,0,1-.43.32l-.82-.44a.34.34,0,0,0-.28,0l-.82.44a.3.3,0,0,1-.43-.32l.15-.91a.27.27,0,0,0-.08-.26l-.67-.65a.3.3,0,0,1,.17-.51l.92-.13a.32.32,0,0,0,.22-.17l.41-.83A.3.3,0,0,1,287.75,209.68Z" style="fill:#07292C"/>
 <path d="M267.33,175.55l.75,1.52a.56.56,0,0,0,.41.3l1.67.24a.54.54,0,0,1,.3.92l-1.21,1.18a.54.54,0,0,0-.15.48l.28,1.67a.54.54,0,0,1-.78.57l-1.5-.79a.55.55,0,0,0-.5,0l-1.5.79a.54.54,0,0,1-.79-.57l.29-1.67a.55.55,0,0,0-.16-.48l-1.21-1.18a.54.54,0,0,1,.3-.92l1.68-.24a.54.54,0,0,0,.4-.3l.75-1.52A.54.54,0,0,1,267.33,175.55Z" style="fill:#07292C"/>
 <path d="M189.74,214.86l.75,1.51a.56.56,0,0,0,.4.3l1.68.24a.54.54,0,0,1,.3.92L191.66,219a.52.52,0,0,0-.16.47l.29,1.67a.54.54,0,0,1-.79.57l-1.49-.79a.57.57,0,0,0-.51,0l-1.5.79a.54.54,0,0,1-.78-.57l.29-1.67a.52.52,0,0,0-.16-.47l-1.21-1.19a.54.54,0,0,1,.3-.92l1.67-.24a.56.56,0,0,0,.41-.3l.75-1.51A.54.54,0,0,1,189.74,214.86Z" style="fill:#07292C"/>
 <path d="M276.75,240.85l.75,1.51a.56.56,0,0,0,.41.3l1.67.24a.54.54,0,0,1,.3.92L278.67,245a.52.52,0,0,0-.16.47l.29,1.67a.54.54,0,0,1-.79.57l-1.49-.79a.57.57,0,0,0-.51,0l-1.49.79a.54.54,0,0,1-.79-.57l.29-1.67a.52.52,0,0,0-.16-.47l-1.21-1.19a.54.54,0,0,1,.3-.92l1.67-.24a.56.56,0,0,0,.41-.3l.75-1.51A.54.54,0,0,1,276.75,240.85Z" style="fill:#07292C"/>
 <path d="m478.38 327.25c-4.57-5.23-12.31-6.33-17.78-10.61-7.37-5.77-9.24-16.09-9.5-25.46s0.46-19.19-3.61-27.63a26.94 26.94 0 0 0-26.34-14.69l-12.33 12c5.61 6.24 8.85 15.91 7.52 24.2s-8.5 24.08-9.18 32.45c-1.47 18.22 5.69 31.47 22.34 39 4.11 1.86 8.66 3.11 13.12 2.48s8.82-3.47 10.29-7.74c7.33 3.67 16.89 3.3 23.11-2s7.76-15.83 2.36-22z" style="fill:#263238"/>
 <path d="M239.63,240.33s5.33-10.3,6.66-11.39,3.27-.85,3.15,1-2.42,7-2.42,7,4-11.74,7.14-14.05,3.52-.48,3.52,1.22c0,0,2.3-7.6,5.33-6.23s.6,6.1.6,6.1,3.27-5.93,5.69-3.81-4.11,13.38-4.11,13.38,2.42-1.09,1.69,3.27-1.57,10.54-3.63,14.17-6.78,12.36-10.42,17.57S248,319.9,248,319.9s-15.75,9.33-23.38,8.12l-3-.49,9.81-55.83s-2.12-3.88-1.66-10.66S239.63,240.33,239.63,240.33Z" style="fill:#ae7461"/>
 <path d="M260,238.36a18.19,18.19,0,0,1-2.72.24c-1.69.12-4,.33-6.54.73s-4.81.91-6.45,1.3a16.71,16.71,0,0,1-2.68.58,11.62,11.62,0,0,1,2.59-.93,50.58,50.58,0,0,1,6.46-1.47,49.44,49.44,0,0,1,6.6-.58A11.61,11.61,0,0,1,260,238.36Z" style="fill:#6f4439"/>
 <path d="M258,223.47a11,11,0,0,1-.84,2.47c-.6,1.49-1.51,3.52-2.63,5.71s-2.22,4.11-3.08,5.47a11.6,11.6,0,0,1-1.49,2.13,13.69,13.69,0,0,1,1.18-2.31c.77-1.41,1.82-3.35,2.93-5.53s2.06-4.17,2.75-5.62A15.7,15.7,0,0,1,258,223.47Z" style="fill:#6f4439"/>
 <path d="m264.18 222.83a14.64 14.64 0 0 1-1.26 2.28l-3.21 5.39-3.16 5.43a14.38 14.38 0 0 1-1.38 2.21 12.43 12.43 0 0 1 1.06-2.39c0.73-1.44 1.78-3.39 3-5.51s2.44-4 3.35-5.33a11.56 11.56 0 0 1 1.6-2.08z" style="fill:#6f4439"/>
 <path d="M243.22,260.56s0-.13.05-.37.15-.59.29-1a15.61,15.61,0,0,1,1.72-3.55,16.46,16.46,0,0,1,4-4.24c1.77-1.32,3.94-2.42,5.68-4.18,3.59-3.57,3.91-8.59,6.17-11.2a7.1,7.1,0,0,1,3.13-2.39,3.81,3.81,0,0,1,1.06-.21,1.15,1.15,0,0,1,.37,0,9,9,0,0,0-1.36.37,7.31,7.31,0,0,0-2.91,2.43A19.4,19.4,0,0,0,259,241.4a17,17,0,0,1-3.66,6.16c-1.83,1.84-4,2.92-5.76,4.2a16.47,16.47,0,0,0-4,4.06A22.6,22.6,0,0,0,243.22,260.56Z" style="fill:#6f4439"/>
 <path d="m426.41 227.11c-5.57-14.07-15.79-24.4-30.13-29.23-8.09-2.72-12-2.1-18.35-2.39s-12.65 1.17-17.73 5c-6 4.57-11.61 10.05-14.68 17-3.15 7.1-6.31 14.25-8.11 21.81s-2.16 15.63 0.28 23l17.74 9.24c10.26 3.66 20.67 7.35 31.53 8.2s22.41-1.45 30.64-8.59c11.4-9.91 14.4-29.97 8.81-44.04z" style="fill:#263238"/>
 <path d="m409.74 221.67-21.87-17.93-6.78-1.33c-14.73-4.63-30.06 8.37-33.95 20.26-4.32 13.2-9.09 29.5-10.09 39.93-2 21 14.21 27.95 14.21 27.95s-1.14 3.1-3.37 9.65l-2.45 1.86c1.34 11.5 18.24 16.64 36.28 9.71l0.76-0.63 31.74-80.64a7.32 7.32 0 0 0-4.48-8.83z" style="fill:#ae7461"/>
 <path d="m347.7 240a2.67 2.67 0 0 0 1.82 3.25 2.55 2.55 0 0 0 3.27-1.64 2.67 2.67 0 0 0-1.81-3.25 2.56 2.56 0 0 0-3.28 1.64z" style="fill:#263238"/>
 <path d="M349.52,230.72c.23.42,2.56-.53,5.34.2s4.46,2.65,4.85,2.39c.19-.12,0-.81-.7-1.69a7.34,7.34,0,0,0-3.77-2.32,7.1,7.1,0,0,0-4.37.25C349.85,230,349.4,230.52,349.52,230.72Z" style="fill:#263238"/>
 <path d="m360.25 257.74c0.06-0.15-1.6-0.9-4.3-2-0.69-0.26-1.33-0.58-1.32-1.09a3.64 3.64 0 0 1 1-2c1.11-1.55 2.27-3.17 3.5-4.87 4.91-6.94 8.66-12.72 8.38-12.91s-4.49 5.27-9.4 12.21c-1.2 1.72-2.34 3.35-3.42 4.92a4.19 4.19 0 0 0-1.09 2.69 1.83 1.83 0 0 0 0.89 1.34 4.75 4.75 0 0 0 1.17 0.48c2.8 0.92 4.54 1.39 4.59 1.23z" style="fill:#263238"/>
 <path d="M351.23,290.52a53,53,0,0,0,28.85-.21s-10.81,12.1-30.48,5Z" style="fill:#6f4439"/>
 <path d="m353.5 221.44c0.29 0.8 2.54 0.9 5 1.75s4.32 2 5 1.57c0.32-0.23 0.22-1-0.46-1.87a7.78 7.78 0 0 0-3.67-2.47 7.65 7.65 0 0 0-4.39-0.21c-1.09 0.32-1.6 0.85-1.48 1.23z" style="fill:#263238"/>
 <path d="m377.29 248.23a2.65 2.65 0 0 1-3.23 1.84 2.54 2.54 0 0 1-1.95-3.09 2.67 2.67 0 0 1 3.24-1.84 2.54 2.54 0 0 1 1.94 3.09z" style="fill:#263238"/>
 <path d="m386.84 241.44c-0.42 0.24-1.93-1.78-4.68-2.59s-5.18 0-5.38-0.47c-0.1-0.2 0.4-0.7 1.47-1.08a7.31 7.31 0 0 1 4.43 0 7.13 7.13 0 0 1 3.6 2.48c0.65 0.87 0.72 1.56 0.56 1.66z" style="fill:#263238"/>
 <path d="m388 232.16c-0.73 0.46-2.66-0.82-5.2-1.62s-4.84-1-5.14-1.79c-0.12-0.38 0.4-0.91 1.53-1.22a8.7 8.7 0 0 1 8.33 2.75c0.69 0.91 0.79 1.65 0.48 1.88z" style="fill:#263238"/>
 <path d="m400.22 262.69c0.39-1.5 3-4.59 4.58-4.44 4.12 0.41 11.17 2.58 8.63 12.64-3.47 13.76-19.69 7-19.62 6.6s5.05-9.63 6.41-14.8z" style="fill:#ae7461"/>
 <path d="M402,273.86c.07,0,.2.23.56.52a2.5,2.5,0,0,0,1.78.49c1.59-.17,3.39-2.17,4.09-4.63a8.1,8.1,0,0,0,.19-3.6,2.87,2.87,0,0,0-1.34-2.3,1.27,1.27,0,0,0-1.58.3c-.28.34-.26.64-.34.64s-.24-.3,0-.84a1.52,1.52,0,0,1,.75-.73,1.92,1.92,0,0,1,1.42,0,3.48,3.48,0,0,1,2,2.77,8.31,8.31,0,0,1-.13,4c-.79,2.75-2.86,5-5,5.06a2.65,2.65,0,0,1-2.1-.91C401.94,274.2,402,273.87,402,273.86Z" style="fill:#6f4439"/>
 <path d="m405.34 258.47-4.56 2.46c-10.29-18.89-27.93-63.59-27-61 0 0 11.47-0.94 21.88 4.44s29.54 17.54 25.08 30.43-15.4 23.67-15.4 23.67z" style="fill:#263238"/>
 <path d="M425.25,259.94a3.69,3.69,0,0,0,0-.82,15.25,15.25,0,0,0-.25-2.35,20.1,20.1,0,0,0-3.59-7.9A38.08,38.08,0,0,0,412,240c-4-2.83-8.63-5.53-12.87-9.17a68.47,68.47,0,0,1-10.8-11.39,71.54,71.54,0,0,1-6.71-10.91,75.25,75.25,0,0,1-3.35-7.95l-.76-2.22a3.47,3.47,0,0,0-.31-.77,4.19,4.19,0,0,0,.17.81c.14.52.33,1.29.63,2.27a64.16,64.16,0,0,0,3.17,8.07,68.36,68.36,0,0,0,6.63,11.08,67.37,67.37,0,0,0,10.87,11.55c4.3,3.68,9,6.37,13,9.16a39.06,39.06,0,0,1,9.44,8.6,20.77,20.77,0,0,1,3.72,7.67C425.21,258.8,425.17,259.94,425.25,259.94Z" style="fill:#455a64"/>
 <path d="M421.3,262.61a7.58,7.58,0,0,0,.41-3.12,14.49,14.49,0,0,0-3-8c-2.14-3-5.75-5.58-9.85-8a69.36,69.36,0,0,1-12.58-8.9,62.33,62.33,0,0,1-10-11.67,63.65,63.65,0,0,1-5.88-11.14,68.94,68.94,0,0,1-2.68-8.07l-.54-2.25a2.81,2.81,0,0,0-.24-.78,3.69,3.69,0,0,0,.1.8c.1.61.24,1.36.41,2.3a57.53,57.53,0,0,0,2.47,8.19,61.21,61.21,0,0,0,15.89,23.16,67.93,67.93,0,0,0,12.73,8.93c4.1,2.38,7.65,4.87,9.78,7.74a14.61,14.61,0,0,1,3.18,7.68A17.48,17.48,0,0,1,421.3,262.61Z" style="fill:#455a64"/>
 <path d="m368.24 261.82a2.18 2.18 0 0 1 1.31-0.06 1.84 1.84 0 0 1 0.86 0.84 4.86 4.86 0 0 1-5.56 7.11c-1.85-0.54-3.75-2.23-3.89-5.91 2.27-0.57 5.04-1.42 7.28-1.98z" style="fill:#6f4439"/>
 <path d="M364.68,269.84a7,7,0,0,0,3-.39,4.53,4.53,0,0,0,2.33-2.13,4.77,4.77,0,0,0,.19-3.81c-.26-.63-.63-1.28-1.13-1.34a6.3,6.3,0,0,0-1.85.33l-3.33.83a14.49,14.49,0,0,1-3.12.6,14,14,0,0,1,3-1.08l3.3-1a5.81,5.81,0,0,1,2.12-.39,1.73,1.73,0,0,1,1.09.71,4.34,4.34,0,0,1,.57,1.06,5.27,5.27,0,0,1-.27,4.35,4.86,4.86,0,0,1-2.72,2.3C365.88,270.57,364.62,269.88,364.68,269.84Z" style="fill:#263238"/>
 <path d="M429.07,241.93a8.91,8.91,0,0,1,.1,1.49,15.38,15.38,0,0,1,0,1.76c0,.69-.06,1.47-.18,2.33,0,.43-.1.88-.15,1.34s-.17,1-.26,1.45c-.15,1-.45,2.06-.71,3.17a45.92,45.92,0,0,1-2.54,7,41.82,41.82,0,0,1-3.77,6.41c-.73.89-1.35,1.79-2.06,2.51l-1,1.09-1,.93a19,19,0,0,1-1.79,1.49c-.27.21-.53.4-.76.59l-.69.42a8.51,8.51,0,0,1-1.3.75c-.07-.11,1.81-1.15,4.28-3.52l1-.94,1-1.09c.7-.73,1.3-1.63,2-2.51a45.17,45.17,0,0,0,3.69-6.35,48.56,48.56,0,0,0,2.55-6.9c.27-1.09.58-2.13.75-3.12.09-.49.19-1,.28-1.43s.13-.9.19-1.33c.14-.85.19-1.62.25-2.3a17.4,17.4,0,0,0,.11-1.74A8.12,8.12,0,0,1,429.07,241.93Z" style="fill:#455a64"/>
 <path d="m220.72 321.7-4.86 13.92a17.16 17.16 0 0 0-2.52 11.55c1 6.46 1.27 16.62 13.78 18.94s69.47-2.58 69.47-2.58 34-63 33.74-62.23a56.28 56.28 0 0 0-19.12 3.83 60.38 60.38 0 0 0-10.78 6.06 75.86 75.86 0 0 1-27.7 11.56c-11.19 2.25-23.69 4.78-23.26 4.78l1.26-11.43z" style="fill:#07292C"/>
 <path d="M392.43,429.16l21.88-110.93-25.76-9.39-1.77-9.21-34,12.18L349,296.91l-7.53,4.28-11.28.11s-32.84,45.41-35.74,72.48c-1.49,13.93,4.9,47,4.9,47L298.09,448l-4.35,11.63c-1.43,3.84-.58,6.5,2.81,8.8l106-.25a15.9,15.9,0,0,0,1.35-16.71Z" style="fill:#07292C"/>
 <path d="m339.11 303.32s-5.91 13.15 0 21.45l11.89-7.72 2.66 14.15s26.14-5.2 33.84-20.88-18.34 17-33.55 17.21l-1.72-13.63-11.8 7s-1.22-11.43-1.32-17.58z" style="opacity:.3"/>
 <g style="opacity:.3">
  <path d="m403.52 450.73-64.59 15.32a7.8 7.8 0 0 1-9.39-5.79l-23-96.93a7.8 7.8 0 0 1 5.8-9.39l67.56-16a7.81 7.81 0 0 1 9.4 5.79l8.08 95.1c1.4 2.61 6.14 11.9 6.14 11.9z"/>
 </g>
 <rect transform="translate(-81.52 94.36) rotate(-13.35)" x="320.01" y="337.96" width="85.05" height="115.22" rx="8.14" style="fill:#e0e0e0"/>
 <path d="M409.29,443.69l.24-.08c.16-.06.41-.11.71-.24a8.12,8.12,0,0,0,4.94-5.45,7.86,7.86,0,0,0,.23-3c-.13-1.06-.46-2.18-.73-3.37L405,391.29l-6.64-27.83L394.71,348c-.63-2.66-1.28-5.37-1.93-8.11a17.65,17.65,0,0,0-1.2-4,7.86,7.86,0,0,0-6.81-4.24,17.56,17.56,0,0,0-4.27.74l-8.74,2.08-18,4.28-37.89,9a7.89,7.89,0,0,0-6,6.75,13,13,0,0,0,.63,4.76c.38,1.59.76,3.18,1.13,4.76L316,382.66c2.9,12.24,5.7,24,8.36,35.31L332,449.92c.29,1.25.59,2.49.88,3.71a7.93,7.93,0,0,0,8,5.95,20.55,20.55,0,0,0,3.43-.66l3.38-.8,6.53-1.54,40.32-9.48,11-2.55,2.86-.65c.64-.15,1-.21,1-.21s-.32.1-1,.26l-2.84.7-10.95,2.65-40.28,9.64-6.53,1.56-3.38.8a20.57,20.57,0,0,1-3.51.68,8.37,8.37,0,0,1-6.64-2.86,8.53,8.53,0,0,1-1.78-3.38c-.3-1.23-.59-2.47-.89-3.72-2.39-10-4.93-20.69-7.61-31.94s-5.48-23.06-8.39-35.3q-2.17-9.19-4.43-18.68c-.38-1.58-.75-3.17-1.13-4.76-.18-.8-.39-1.58-.55-2.41a8,8,0,0,1-.1-2.53,8.41,8.41,0,0,1,2.06-4.6,8.6,8.6,0,0,1,2-1.63,8.83,8.83,0,0,1,2.38-1l37.9-9,18-4.27,8.74-2.07,2.15-.51a8.45,8.45,0,0,1,2.24-.24,8.37,8.37,0,0,1,7.22,4.5,9.19,9.19,0,0,1,.75,2.05c.16.69.33,1.38.49,2.07l1.92,8.11,3.66,15.5c2.37,10,4.57,19.33,6.57,27.84,4,17,7.24,30.79,9.49,40.33.26,1.19.58,2.3.71,3.39a8.14,8.14,0,0,1-.26,3,8.26,8.26,0,0,1-2.54,4,7.92,7.92,0,0,1-2.53,1.47A7.67,7.67,0,0,1,409.29,443.69Z" style="fill:#263238"/>
 <circle transform="translate(-84.45 688.45) rotate(-80.76)" cx="362.54" cy="393.88" r="8.34" style="fill:#fff"/>
 <path d="M323,419.35c-.19-.07,1.89,4.76,8.6,6.54s21.51,1.77,24.28,2.76,58.41,11.7,58.41,11.7,1.33-.69,1.61-6.26S323,419.35,323,419.35Z" style="opacity:.3"/>
 <path d="M339.77,367.43a1.51,1.51,0,0,0-2.22-1c-2.08,1.2-5,4.09-4.48,10a23.79,23.79,0,0,0,3,10.16l-17,1.89s-6,1.68-5.12,5.31,1.69,3.37,1.69,3.37a4,4,0,0,0-3.61,4.68c.2,2.52,3.17,4.34,3.17,4.34s-.94,4.34-.28,5.28,4.71,2.7,4.71,2.7-.81,2.8.94,4.13,10.88,3.54,10.88,3.54,19.57,1,23.73,1l19.73,4.53V404.08s-16.18-3-17.07-4c-1.89-2.17-12.36-17-12.36-17s-4.05-5-4.89-8.78A66.77,66.77,0,0,1,339.77,367.43Z" style="fill:#ae7461"/>
 <path d="m325.6 396.87a67.52 67.52 0 0 1-10.12-0.1 36 36 0 0 1 5.06-0.14 35.05 35.05 0 0 1 5.06 0.24z" style="fill:#6f4439"/>
 <path d="M327.4,407a8,8,0,0,1-1.8.06c-1.11,0-2.65-.09-4.35-.23s-3.23-.32-4.33-.48a8.18,8.18,0,0,1-1.78-.35,8.48,8.48,0,0,1,1.8.08l4.33.37,4.33.34A8.78,8.78,0,0,1,327.4,407Z" style="fill:#6f4439"/>
 <path d="m326.31 415.31a15.5 15.5 0 0 1-3.33-0.49 15.91 15.91 0 0 1-3.25-0.86 14 14 0 0 1 3.32 0.49 15.17 15.17 0 0 1 3.26 0.86z" style="fill:#6f4439"/>
 <path d="m413.67 318s3.05 0.08 8.56 8.35 22.77 79.27 23.77 86.85c1.36 9.55-3 24.25-12.83 25.47-13.04 1.63-75.34-12.67-75.34-12.67l8.12-26 41.87 2.31s-5.62-26.28-7.85-33c-3.66-11.18-1.31-46.79 13.7-51.31z" style="fill:#07292C"/>
 <path d="M310.88,328.43a1.44,1.44,0,0,1-.17.44l-.58,1.24c-.55,1.14-1.29,2.67-2.18,4.53-1.81,3.83-4.23,9.17-6.59,15.19s-4.23,11.58-5.39,15.65c-.57,2-1,3.71-1.27,4.86-.12.53-.23,1-.32,1.33a1.61,1.61,0,0,1-.14.45,1.29,1.29,0,0,1,0-.47c.06-.37.13-.82.22-1.35.22-1.17.59-2.86,1.12-4.91a142.5,142.5,0,0,1,5.25-15.75c2.37-6,4.85-11.36,6.75-15.16,1-1.9,1.75-3.43,2.33-4.46.26-.48.49-.87.67-1.19A2.14,2.14,0,0,1,310.88,328.43Z" style="fill:#263238"/>
 <path d="M388.2,309.47a5.07,5.07,0,0,1-.48.64c-.33.39-.78,1-1.47,1.74A43.16,43.16,0,0,1,380,317.5,52.28,52.28,0,0,1,369,323.77a53.59,53.59,0,0,1-15.07,4l-.25,0,0-.25-.41-3.22c-.45-3.59-.88-7.08-1.3-10.41l.38.19-11.82,6.94-.25.15-.07-.29a47.27,47.27,0,0,1-1.17-13.55c.1-1.63.26-2.91.39-3.77.07-.43.13-.76.17-1a1.3,1.3,0,0,1,.08-.33,1.26,1.26,0,0,1,0,.34c0,.26-.07.58-.11,1-.09.86-.21,2.13-.27,3.76a48.76,48.76,0,0,0,1.34,13.44l-.32-.13,11.78-7,.34-.19,0,.38c.42,3.32.87,6.81,1.32,10.41.14,1.1.28,2.19.4,3.21l-.28-.22a55.31,55.31,0,0,0,25.85-10,47,47,0,0,0,6.34-5.5c.71-.69,1.17-1.31,1.54-1.68A6.09,6.09,0,0,1,388.2,309.47Z" style="fill:#263238"/>
 <path d="M243.14,348.58a3.6,3.6,0,0,1,.05-.9c.06-.58.18-1.42.36-2.44a66.68,66.68,0,0,1,1.93-7.92,64.93,64.93,0,0,1,2.88-7.62c.43-.94.8-1.7,1.07-2.22a3.11,3.11,0,0,1,.48-.77,29.52,29.52,0,0,1-1.21,3.14c-.78,1.92-1.78,4.61-2.72,7.63s-1.62,5.8-2.06,7.83A26.16,26.16,0,0,1,243.14,348.58Z" style="fill:#263238"/>
 <rect x="148.04" y="363.54" width="43.26" height="73.71" style="fill:#fff"/>
 <path d="m191.3 437.25s0-0.13 0-0.37 0-0.6 0-1.05v-4.07c0-3.56 0-8.73-0.07-15.24 0-13-0.07-31.41-0.11-53l0.24 0.24h-43.26l0.26-0.26c0 28.1-0.05 53.88-0.06 73.71l-0.2-0.2 31.52 0.1 8.67 0.05h2.28 0.79-0.75-2.24-8.63l-31.64 0.11h-0.2v-0.2c0-19.83 0-45.61-0.06-73.71v-0.26h0.16 43.26 0.24v0.24c0 21.63-0.09 40.08-0.12 53.14 0 6.49 0 11.64-0.06 15.18v4 1c-0.01 0.48-0.02 0.59-0.02 0.59z" style="fill:#263238"/>
 <rect x="86.46" y="367.14" width="100.89" height="80.56" rx="2.8" style="fill:#455a64"/>
 <path d="M71.8,264l-1-83.61c-.93-20.78,10.39-38.65,31.2-39l1.92.08a37.2,37.2,0,0,1,35.64,35.71c.71,18,1.26,37.94.74,47.57C139.21,244.7,119.13,247,119.13,247s-.12,12.14-.94,18.35L122.88,279l-30.66,7.36Z" style="fill:#ffbf9d"/>
 <path d="M119.13,247s-12.61.22-25.66-8.75c0,0,5.63,15.26,25.61,14.28Z" style="fill:#ff9a6c"/>
 <path d="M114.88,209.3c0-.17,1.91-.42,5-.69.78-.05,1.53-.17,1.68-.7a4,4,0,0,0-.42-2.34l-2.07-6.06c-2.87-8.62-4.9-15.7-4.56-15.81s3,6.78,5.82,15.41c.69,2.12,1.34,4.15,2,6.08a4.53,4.53,0,0,1,.28,3.09,2,2,0,0,1-1.34,1.09,4.63,4.63,0,0,1-1.33.13C116.81,209.54,114.88,209.48,114.88,209.3Z" style="fill:#263238"/>
 <path d="m71.8 195.25c-0.34-0.16-13.54-4.62-13.67 9s13.61 11 13.64 10.58 0.03-19.58 0.03-19.58z" style="fill:#ffbf9d"/>
 <path d="M67.64,209.65c-.06,0-.24.17-.64.35a2.38,2.38,0,0,1-1.78,0c-1.44-.54-2.63-2.85-2.67-5.31a7.77,7.77,0,0,1,.69-3.4,2.76,2.76,0,0,1,1.81-1.81,1.22,1.22,0,0,1,1.4.67c.18.38.09.65.16.68s.3-.23.19-.79a1.45,1.45,0,0,0-.53-.86,1.78,1.78,0,0,0-1.31-.36,3.36,3.36,0,0,0-2.51,2.09,8.15,8.15,0,0,0-.86,3.8c.07,2.75,1.45,5.34,3.42,5.93a2.54,2.54,0,0,0,2.18-.34C67.61,210,67.69,209.68,67.64,209.65Z" style="fill:#ff9a6c"/>
 <path d="M147.73,171.07c-8.57,1.32-17.35.69-24.19-4.63a40.58,40.58,0,0,1-5.48-5.18c-3-3.44-5.4-7.73-9.49-9.81-5.27-2.68-11.61-.85-17.21,1l.24-.21a25.15,25.15,0,0,0-7.81,5.5,77.75,77.75,0,0,1-6,38.8,4.16,4.16,0,0,1-2.24,2.22c-3.2,1.27-2.21-3-4.59-3.8-1.82-.63-2.7-.24-6.33-.35-1.26-3.43-2-12.78-3.06-17.83-3-3.17-5.76-9-5.87-13.63s2.44-10.43,2.44-10.43c3.46-6.57,5.47-9.93,10.78-11.75l.12.05c4.77-1.86,10.62-1.82,14.48,1.52,1-7.11,7.36-12.68,14.33-14.42s18.11-.53,24.75,2.23c4.53,1.88,8.91,5.46,14,10.62h0c.67.68,1.36,1.39,2.06,2.13l.17.19a12.07,12.07,0,0,0,5.17,1.6c3,.34,4.92-.61,7-2.86.63-.69,1.42-1.55,2.3-1.27a1.91,1.91,0,0,1,1.06,1.32c1,3-.33,6.32-2.57,8.5a14,14,0,0,1-3.7,2.53,9.62,9.62,0,0,0,5.5,3.07,6.93,6.93,0,0,1,4.62,2.95,4.79,4.79,0,0,1,.88,2.67C159.05,167.59,153.31,170.21,147.73,171.07Z" style="fill:#263238"/>
 <path d="M151.39,165.09l-.16.14-.51.35a6.36,6.36,0,0,1-.85.54,10.57,10.57,0,0,1-1.22.62,17.79,17.79,0,0,1-8.58,1.45,22.65,22.65,0,0,1-12-4.6,39.1,39.1,0,0,1-10.23-12.06c-1.42-2.44-2.58-4.93-3.86-7.24a26.43,26.43,0,0,0-4.4-6.13,13.56,13.56,0,0,0-5.72-3.56,9.71,9.71,0,0,0-3-.39,10.86,10.86,0,0,0-2.79.5,11.64,11.64,0,0,0-6.48,5.37,13.78,13.78,0,0,0-1.07,3s0-.07,0-.21.06-.36.1-.61a10.57,10.57,0,0,1,.79-2.25,11.3,11.3,0,0,1,2.27-3,11.78,11.78,0,0,1,4.27-2.58,11,11,0,0,1,2.88-.55,10.47,10.47,0,0,1,3.15.37,14,14,0,0,1,5.92,3.63,27.13,27.13,0,0,1,4.49,6.22c1.3,2.32,2.45,4.81,3.87,7.23a39.17,39.17,0,0,0,10.08,11.95,22.57,22.57,0,0,0,11.78,4.61,18,18,0,0,0,8.47-1.28C150.45,165.76,151.35,165,151.39,165.09Z" style="fill:#455a64"/>
 <path d="M153.31,156.33a3.52,3.52,0,0,1-.73.49,14,14,0,0,1-2.13,1.05,20,20,0,0,1-3.37,1.07,23.65,23.65,0,0,1-4.31.52,24.34,24.34,0,0,1-4.32-.34,20.81,20.81,0,0,1-3.42-.93,15.62,15.62,0,0,1-2.17-1c-.5-.27-.76-.43-.74-.46s1.13.5,3,1.11a23.73,23.73,0,0,0,3.38.81,24.6,24.6,0,0,0,4.24.3,25.93,25.93,0,0,0,4.23-.47,25,25,0,0,0,3.34-1C152.19,156.88,153.26,156.25,153.31,156.33Z" style="fill:#455a64"/>
 <path d="M76.9,166.72a3.79,3.79,0,0,1,.18,1.29,23.61,23.61,0,0,1-.07,3.57,12.38,12.38,0,0,1-.41,2.52,1.44,1.44,0,0,1-1.37,1,2.56,2.56,0,0,1-1.52-.75l-4.88-4.52.72-.42c.22,1,.46,1.93.7,2.93.65,2.76,1.26,5.38,1.82,7.77l.3,1.31-1-.92A32.08,32.08,0,0,1,66,173.83a11.17,11.17,0,0,1-1.47-3c.2-.14,2.31,4.38,7.43,9.06l-.66.39c-.58-2.39-1.22-5-1.89-7.75-.24-1-.47-2-.7-2.94l-.33-1.42,1,1,4.8,4.58a2,2,0,0,0,1,.6.74.74,0,0,0,.71-.54,13,13,0,0,0,.47-2.33C76.85,168.55,76.77,166.73,76.9,166.72Z" style="fill:#455a64"/>
 <path d="m114.27 217.15c-0.23 0-10.45-4-10.45-4s-3 5.91 0.62 8.62 7.94 1 8.63-0.61a26.83 26.83 0 0 0 1.2-4.01z" style="fill:#ff9a6c"/>
 <path d="M112,222.3a13.09,13.09,0,0,1-1.44.45,10.21,10.21,0,0,1-4-.24h0A4.92,4.92,0,0,1,103.2,216a11,11,0,0,1,1-2.63l-.52.19c3.1,1.16,5.83,2.15,7.79,2.82a14.34,14.34,0,0,0,3.2.93,14.59,14.59,0,0,0-3-1.44c-1.91-.81-4.6-1.9-7.69-3.11l-.34-.13-.18.32a11.77,11.77,0,0,0-1.09,2.85,6.36,6.36,0,0,0,.52,4.93,6.26,6.26,0,0,0,3.47,2.45h0a9.37,9.37,0,0,0,4.25-.05C111.63,222.84,112,222.32,112,222.3Z" style="fill:#263238"/>
 <path d="m131.83 195.7a2.9 2.9 0 0 1-2.9 2.82 2.77 2.77 0 0 1-2.85-2.75 2.9 2.9 0 0 1 2.89-2.83 2.77 2.77 0 0 1 2.86 2.76z" style="fill:#263238"/>
 <path d="m133.61 185.8c-0.37 0.36-2.48-1.36-5.58-1.48s-5.43 1.35-5.75 1c-0.16-0.17 0.23-0.85 1.25-1.53a7.81 7.81 0 0 1 4.62-1.24 7.53 7.53 0 0 1 4.43 1.66c0.92 0.73 1.21 1.43 1.03 1.59z" style="fill:#263238"/>
 <path d="m103.33 194.4a2.89 2.89 0 0 1-2.89 2.82 2.77 2.77 0 0 1-2.86-2.75 2.9 2.9 0 0 1 2.89-2.83 2.78 2.78 0 0 1 2.86 2.76z" style="fill:#263238"/>
 <path d="m103.24 185.26c-0.38 0.36-2.49-1.36-5.59-1.48s-5.42 1.35-5.74 0.95c-0.16-0.18 0.23-0.85 1.25-1.54a7.84 7.84 0 0 1 4.62-1.19 7.53 7.53 0 0 1 4.42 1.65c0.92 0.74 1.22 1.44 1.04 1.61z" style="fill:#263238"/>
 <path d="M104.64,175.49c-.46.78-3.42-.18-7.08-.42s-6.72.22-7.06-.62c-.15-.4.5-1.1,1.81-1.69a11.6,11.6,0,0,1,5.48-.87,11.8,11.8,0,0,1,5.3,1.66C104.3,174.33,104.84,175.12,104.64,175.49Z" style="fill:#263238"/>
 <path d="M134.13,176.59c-.66.69-3.17-.12-6.2-.23s-5.61.33-6.18-.43c-.25-.37.17-1.08,1.31-1.72a9.69,9.69,0,0,1,5.07-1,9.52,9.52,0,0,1,4.91,1.56C134.09,175.5,134.42,176.25,134.13,176.59Z" style="fill:#263238"/>
 <path d="m83.08 317.1c6.86 6.55 60.91 32.94 87.8 31.31s60.7-74.14 60.7-74.14l-25.67-14.67-6.52 9.4-37.48 37s-39.91-29.29-48.48-34.59-22.81-21.59-43.18-4.07-1.18 36.39 12.83 49.76z" style="fill:#07292C"/>
 <path d="M210.64,255.1s-5.82-4.64-6.22-7.4.2-5.52-.69-7.2,3.16-2.56,5.23,0,3.75,4.44,3.75,4.44,2.17-13.61,3.15-17.55,2.57-13.71,3-17,1.38-7.89,3.25-7.89h.5s2.17.2,1.77,2.07c0,0,.89-9.17,5.33-8.87,0,0,2.76,0,2.36,4.44s-1.18,10.15-1.18,10.15l3-10.75s.29-3.35,3.25-2.86,2.57,3.16,2,7.69-2.46,15.09-2.46,15.09,3.94-13.7,5.52-14.69,4.34-1.09,3.45,3.94-3.15,15.88-3.15,15.88-.6,17.35-1.38,21.1-12,27.19-12,27.19L209.1,261.53s3.61-4.07,3.31-4.36S210.64,255.1,210.64,255.1Z" style="fill:#ffbf9d"/>
 <path d="m212.53 244.85a21.81 21.81 0 0 1-0.25 3 19.22 19.22 0 0 1-0.21 3 6 6 0 0 1-0.31-3.05 5.85 5.85 0 0 1 0.77-2.95z" style="fill:#ff9a6c"/>
 <path d="M221.3,223.23a13.75,13.75,0,0,1,.07-2.95c.13-1.82.4-4.33.87-7.07s1-5.2,1.51-7a15.76,15.76,0,0,1,.91-2.81,20.07,20.07,0,0,1-.55,2.9c-.38,1.77-.89,4.23-1.36,7s-.79,5.21-1,7A19.88,19.88,0,0,1,221.3,223.23Z" style="fill:#ff9a6c"/>
 <path d="M228.58,223.23a9.19,9.19,0,0,1,0-2.37,52.86,52.86,0,0,1,.73-5.65,56.43,56.43,0,0,1,1.29-5.56,9.09,9.09,0,0,1,.8-2.22,13.07,13.07,0,0,1-.44,2.32c-.32,1.41-.74,3.37-1.14,5.55s-.68,4.16-.88,5.6A13.46,13.46,0,0,1,228.58,223.23Z" style="fill:#ff9a6c"/>
 <path d="m235.64 225.54a18.49 18.49 0 0 1 1.81-8.23 30.86 30.86 0 0 1-0.87 4.12 33.42 33.42 0 0 1-0.94 4.11z" style="fill:#ff9a6c"/>
 <path d="M166.36,320.54a1.19,1.19,0,0,1-.11-.31l-.25-.94c-.21-.85-.51-2.06-.88-3.6a36.63,36.63,0,0,0-1.72-5.59,16.2,16.2,0,0,0-1.76-3.17,13,13,0,0,0-2.88-2.84c-4.55-3.52-10.11-7.55-16.35-11.93s-13.14-9.12-20.27-14.28c-3.56-2.58-7-5.08-10.47-7.42s-6.82-4.45-10-6.49a29.69,29.69,0,0,0-4.9-2.54,8.37,8.37,0,0,0-2.53-.58l-1.29-.14-1.27,0a32.53,32.53,0,0,0-9.27,1.14A47.8,47.8,0,0,0,70,267.23c-1.38.83-2.42,1.53-3.12,2l-.8.54a1.36,1.36,0,0,1-.29.17,1.58,1.58,0,0,1,.25-.21l.78-.58c.68-.51,1.7-1.23,3.07-2.09a46.3,46.3,0,0,1,12.44-5.62,32.33,32.33,0,0,1,9.37-1.21l1.29,0,1.31.13a9.18,9.18,0,0,1,2.64.6,29.81,29.81,0,0,1,5,2.56c3.23,2,6.62,4.14,10.06,6.48s6.93,4.84,10.5,7.42c7.12,5.15,14,9.9,20.24,14.31s11.76,8.46,16.3,12a13.33,13.33,0,0,1,2.92,2.94,16.49,16.49,0,0,1,1.76,3.25,35.85,35.85,0,0,1,1.65,5.65c.33,1.55.59,2.77.78,3.63.08.39.15.7.2.94A1.42,1.42,0,0,1,166.36,320.54Z" style="fill:#263238"/>
 <polygon points="48.9 468.36 52.56 453.03 160.14 454.97 165.12 468.36" style="fill:#263238"/>
 <path d="M67.53,251.19c-2.6.87-30.25,27.06-29.09,57.62S54.29,433.05,54.29,433.05s-12.68,5.19-8.94,17,116,8,116,8,1.07,1,1.55-8.07c.67-12.49-18.62-134-18.62-134s-16.82-33.88-24-49.79l-1.09-8.9L70.72,240.83Z" style="fill:#07292C"/>
 <path d="m88.38 320.54s37.46 31.67 61.79 33.76l-1.81-11.79z" style="opacity:.3"/>
 <path d="M79,314.25a3.83,3.83,0,0,1,.71.43l2,1.3c.84.58,1.88,1.28,3.12,2s2.6,1.7,4.18,2.63,3.27,2,5.15,3,3.9,2.15,6,3.29c4.3,2.23,9.08,4.55,14.21,6.76s10.1,4.09,14.66,5.7,8.73,2.9,12.25,3.9c1.75.53,3.35.94,4.75,1.33s2.62.7,3.61.94l2.28.6a4.4,4.4,0,0,1,.79.24,4.5,4.5,0,0,1-.81-.14l-2.31-.5c-1-.21-2.22-.5-3.63-.86s-3-.75-4.78-1.26c-3.54-.95-7.71-2.24-12.31-3.79s-9.57-3.47-14.71-5.68-9.93-4.56-14.22-6.81c-2.13-1.16-4.16-2.24-6-3.35S90.3,322,88.75,321s-2.93-1.89-4.14-2.69-2.25-1.52-3.07-2.13l-1.91-1.39A6.26,6.26,0,0,1,79,314.25Z" style="fill:#263238"/>
 <path d="M118.78,257.34a4.38,4.38,0,0,1,.15.82c.1.59.23,1.37.39,2.35a80.47,80.47,0,0,0,1.94,8.52l.11.4-.38-.16c-5.44-2.39-12.73-5.42-20.83-8.34C91.22,257.69,83,255.18,77,253.5l-7.12-1.95L67.93,251a3.19,3.19,0,0,1-.67-.22,3,3,0,0,1,.69.12l2,.43c1.7.39,4.15,1,7.17,1.78,6,1.6,14.3,4.05,23.25,7.3,8.13,2.93,15.4,6,20.82,8.47l-.27.23a70.45,70.45,0,0,1-1.78-8.59c-.14-1-.23-1.83-.28-2.38A4,4,0,0,1,118.78,257.34Z" style="fill:#263238"/>
 <path d="M62.84,432.37a21.48,21.48,0,0,1-4.6.89,21.6,21.6,0,0,1-4.67.38,20.11,20.11,0,0,1,4.6-.89A21.6,21.6,0,0,1,62.84,432.37Z" style="fill:#263238"/>
</svg>
